<svg height="512" viewBox="0 0 128 128" width="512" xmlns="http://www.w3.org/2000/svg"><g id="Circle_Grid" data-name="Circle Grid"><circle cx="64" cy="64" fill="#ef5261" r="64"/></g><g id="icon"><g fill="#eeefee"><path d="m32.323 67.446h2.384v12.199h-2.384z"/><path d="m37.15 71.789a1.272 1.272 0 0 1 -1.272 1.272h-1.808v-2.544h1.807a1.272 1.272 0 0 1 1.273 1.272z"/><path d="m36.069 34.5v3.515h-2.4v-3.515a1.2 1.2 0 0 1 1.2-1.2 1.2 1.2 0 0 1 1.2 1.2z"/><path d="m84.891 32.277v7.968h-2.4v-7.968a1.2 1.2 0 0 1 1.2-1.2 1.2 1.2 0 0 1 1.2 1.2z"/></g><path d="m91.067 41.573h9.688v5.158h-9.688z" fill="#dbd8dd"/><path d="m94.461 79.641v-32.9a8.082 8.082 0 0 0 -9.025-8.027l-38.2 4.486a9.927 9.927 0 0 1 -10.548-6.205 1.347 1.347 0 0 0 -1.254-.854h-2.983a1.6 1.6 0 0 0 -1.595 1.595v28.844a1.4 1.4 0 0 0 1.4 1.4h2.176a.848.848 0 0 0 .772-.5l5.076-11.134a4.769 4.769 0 0 1 4.34-2.791h28.788a6.632 6.632 0 0 1 6.546 7.7l-2.99 18.389z" fill="#62667c"/><rect fill="#eeefee" height="21.066" rx="2.689" width="5.378" x="98.77" y="33.691"/><rect fill="#dbd8dd" height="2.333" rx="1.166" width="9.285" x="67.739" y="45.178"/><rect fill="#dbd8dd" height="2.333" rx="1.166" width="3.453" x="78.648" y="45.178"/><path d="m85.019 59.913v19.732h-8.059l2.994-18.391a6.638 6.638 0 0 0 -6.549-7.7h-28.79a4.761 4.761 0 0 0 -4.335 2.8l-5.08 11.126a.839.839 0 0 1 -.772.492h-2.173a1.394 1.394 0 0 1 -1.4-1.391v-28.851a1.6 1.6 0 0 1 1.595-1.595h1.357v8.992a5.458 5.458 0 0 0 5.463 5.455h36.418a9.332 9.332 0 0 1 9.331 9.331z" fill="#575b6d"/><rect fill="#f6b863" height="18.238" rx="1.697" width="81.997" x="23.003" y="78.686"/><path d="m23 83.844h81.996v3.257h-81.996z" fill="#eaa14e"/><circle cx="34.68" cy="57.385" fill="#dbd8dd" r="1.936"/><rect fill="#dbd8dd" height="6.523" rx="2.702" width="5.404" x="83.857" y="65.538"/></g></svg>